# xmcd CD database file
#
# Track frame offsets:
#	150
#	18865
#	35175
#	61922
#
# Disc length: 1484 seconds
#
# Revision: 0
# Processed by: cddbd v1.5PL3 Copyright (c) Steve Scherf et al.
# Submitted via: CDex 1.50beta9
#
DISCID=2c05ca04
DTITLE=P-MODEL - LAYER-GREEN
DYEAR=1997
DGENRE=Techno
TTITLE0=LAYER-GREEN
TTITLE1=BA-DA-DHA
TTITLE2=AFFIRMATION
TTITLE3=CD-EXTRA DATA TRACK
EXTD=YEAR: 1997
EXTT0=
EXTT1=
EXTT2=
EXTT3=
PLAYORDER=
